HIERARCHY
ROOT Hips
{
	OFFSET 0.000000 0.000000 0.000000 
	CHANNELS 6 Xposition Yposition Zposition Zrotation Yrotation Xrotation
	JOINT LeftUpLeg
	{
		OFFSET 1.363060 -1.794630 0.839290 
		CHANNELS 3 Zrotation Yrotation Xrotation
		JOINT LeftLeg
		{
			OFFSET 2.448110 -6.726130 0.000000 
			CHANNELS 3 Zrotation Yrotation Xrotation
			JOINT LeftFoot
			{
				OFFSET 2.562200 -7.039590 0.000000 
				CHANNELS 3 Zrotation Yrotation Xrotation
				JOINT LeftToeBase
				{
					OFFSET 0.157640 -0.433110 2.322550 
					CHANNELS 3 Zrotation Yrotation Xrotation
					End Site
					{
						OFFSET 0.000000 0.000000 0.000000 
					}
				}
			}
		}
	}
	JOINT RightUpLeg
	{
		OFFSET -1.305520 -1.794630 0.839290 
		CHANNELS 3 Zrotation Yrotation Xrotation
		JOINT RightLeg
		{
			OFFSET -2.542530 -6.985550 0.000000 
			CHANNELS 3 Zrotation Yrotation Xrotation
			JOINT RightFoot
			{
				OFFSET -2.568260 -7.056230 0.000000 
				CHANNELS 3 Zrotation Yrotation Xrotation
				JOINT RightToeBase
				{
					OFFSET -0.164730 -0.452590 2.363150 
					CHANNELS 3 Zrotation Yrotation Xrotation
					End Site
					{
						OFFSET 0.000000 0.000000 0.000000 
					}
				}
			}
		}
	}
	JOINT Spine
	{
		OFFSET 0.028270 2.035590 -0.193380 
		CHANNELS 3 Zrotation Yrotation Xrotation
		JOINT Spine1
		{
			OFFSET 0.056720 2.048850 -0.042750 
			CHANNELS 3 Zrotation Yrotation Xrotation
			JOINT Neck1
			{
				OFFSET -0.054170 1.746240 0.172020 
				CHANNELS 3 Zrotation Yrotation Xrotation
				JOINT Head
				{
					OFFSET 0.104070 1.761360 -0.123970 
					CHANNELS 3 Zrotation Yrotation Xrotation
					End Site
					{
						OFFSET 0.000000 0.000000 0.000000 
					}
				}
			}
			JOINT LeftArm
			{
				OFFSET 3.362410 1.200890 -0.311210 
				CHANNELS 3 Zrotation Yrotation Xrotation
				JOINT LeftForeArm
				{
					OFFSET 4.983000 -0.000000 -0.000000 
					CHANNELS 3 Zrotation Yrotation Xrotation
					JOINT LeftHand
					{
						OFFSET 3.483560 -0.000000 -0.000000 
						CHANNELS 3 Zrotation Yrotation Xrotation
						JOINT LeftHandIndex1
						{
							OFFSET 0.715260 -0.000000 -0.000000 
							CHANNELS 3 Zrotation Yrotation Xrotation
							End Site
							{
								OFFSET 0.000000 0.000000 0.000000 
							}
						}
					}
				}
			}
			JOINT RightArm
			{
				OFFSET -3.136600 1.374050 -0.404650 
				CHANNELS 3 Zrotation Yrotation Xrotation
				JOINT RightForeArm
				{
					OFFSET -5.241900 -0.000000 -0.000000 
					CHANNELS 3 Zrotation Yrotation Xrotation
					JOINT RightHand
					{
						OFFSET -3.444170 -0.000000 -0.000000 
						CHANNELS 3 Zrotation Yrotation Xrotation
						JOINT RightHandIndex1
						{
							OFFSET -0.622530 -0.000000 -0.000000 
							CHANNELS 3 Zrotation Yrotation Xrotation
							End Site
							{
								OFFSET 0.000000 0.000000 0.000000 
							}
						}
					}
				}
			}
		}
	}
}
MOTION
Frames: 9
Frame Time: 0.041667
9.237597 18.327478 -40.042863 -144.017471 -85.138581 146.167509 -12.460182 -26.487291 -2.183265 -1.824067 8.583185 25.392703 5.232102 -11.735909 11.280069 0.741000 -5.499100 -15.337900 16.015849 22.001787 -0.446641 1.690090 -7.476644 24.014043 0.538248 -3.820479 5.637230 -2.333600 9.528900 -27.464300 6.846942 -1.015349 -2.151628 -1.364352 -0.613739 -11.958232 16.369139 -2.551247 11.601501 2.718300 -0.413800 4.452800 -86.504929 1.718641 51.684025 26.244911 -26.631901 -8.208900 1.394639 0.962473 11.482312 -7.125000 0.000000 0.000000 80.238720 -14.380403 9.092382 -20.010186 22.904508 -5.591300 1.335669 0.201903 21.113084 7.125000 0.000000 0.000000 
9.248942 18.330787 -40.126529 -124.131637 -86.008870 126.213972 -12.184288 -26.330453 -2.469640 -1.717983 8.624841 25.775017 5.376011 -12.355763 11.495116 0.923400 -6.122200 -17.139400 16.487049 21.583203 -0.042634 1.790536 -7.398601 23.630777 0.873329 -4.800363 4.892414 -2.046100 8.961500 -25.675100 6.751188 -0.950061 -2.202688 -1.511059 -0.638300 -12.123325 15.817573 -1.326170 10.939525 2.478300 0.121800 4.125600 -85.875078 2.007317 50.468145 26.342399 -26.711756 -8.191863 1.384701 0.941352 11.215718 -7.125000 0.000000 0.000000 79.726131 -14.256718 8.816088 -20.107593 23.024807 -5.619465 1.332635 0.208671 20.907338 7.125000 0.000000 0.000000 
9.246460 18.333150 -40.208423 -99.507697 -86.364361 101.883527 -11.821394 -26.614624 -2.640623 -1.579633 8.653122 26.163182 5.338019 -12.137411 11.257791 1.257500 -7.108900 -20.038400 16.860425 21.112807 -0.164373 1.935316 -7.332053 23.106225 1.044147 -5.351449 4.443604 -1.724900 8.267900 -23.530900 6.724206 -0.792147 -2.458322 -1.740298 -0.694373 -12.026253 14.943771 -0.054732 9.878944 2.344200 0.613600 4.056400 -85.680988 2.012820 48.312881 25.926097 -26.220742 -7.877731 1.422709 0.927875 11.890496 -7.125000 0.000000 0.000000 79.197250 -14.230400 8.722556 -20.203098 23.127152 -5.664625 1.332282 0.207275 20.629521 7.125000 0.000000 0.000000 
9.256741 18.346149 -40.288899 -66.324524 -86.272095 69.047642 -11.177874 -27.182513 -2.959973 -1.475629 8.626588 26.459660 5.487719 -12.830890 11.955486 0.807100 -5.733400 -16.012800 17.390132 20.538452 -0.348666 2.082015 -7.256694 22.575724 1.310188 -6.174081 3.828846 -1.519900 7.785000 -22.062900 6.606281 -0.921453 -2.831098 -1.972396 -0.927517 -12.084018 14.043731 1.185106 9.054159 1.865000 1.140100 3.598200 -85.575401 2.081906 45.341911 25.478788 -25.699005 -7.546094 1.474670 0.911733 13.011328 -7.125000 0.000000 0.000000 78.600764 -14.114396 9.058937 -20.283413 23.214979 -5.713846 1.330133 0.202146 20.392750 7.125000 0.000000 0.000000 
9.260050 18.353003 -40.372329 -50.682913 -85.914688 53.580256 -10.601393 -27.516774 -3.357633 -1.430747 8.691775 26.702156 5.584596 -13.389228 12.905015 0.259600 -3.278100 -9.053900 18.025423 20.395467 -0.003752 2.182176 -7.093198 22.138825 1.629083 -7.069308 3.108788 -1.565100 7.894400 -22.393700 6.615604 -0.823686 -2.989840 -2.069481 -0.920446 -12.097928 13.194285 2.564992 8.136469 1.422000 1.729200 3.150800 -85.746552 2.157713 41.340230 25.158293 -25.335768 -7.310216 1.544816 0.906354 14.464864 -7.125000 0.000000 0.000000 77.783565 -13.927239 9.727320 -20.305682 23.230697 -5.731909 1.330818 0.191907 20.329824 7.125000 0.000000 0.000000 
9.262414 18.353003 -40.453987 -37.042305 -85.775663 40.047021 -10.484989 -27.693750 -3.739149 -1.396074 8.832166 26.927620 5.558727 -13.390152 13.110535 0.238200 -3.141200 -8.672100 18.297258 20.360030 0.493288 2.240815 -6.911204 21.786172 1.992792 -8.067873 2.561046 -1.761400 8.350400 -23.783400 6.423522 -0.651588 -3.185125 -2.018721 -0.801513 -12.205130 12.296537 3.867310 7.445164 0.980500 2.296000 2.789300 -85.857638 2.291647 37.660439 24.831059 -24.970692 -7.082673 1.601218 0.909064 15.629356 -7.125000 0.000000 0.000000 77.090319 -13.718731 9.482097 -20.316586 23.237848 -5.720804 1.331820 0.169327 21.115590 7.125000 0.000000 0.000000 
9.269622 18.357848 -40.534463 -26.043935 -85.636348 29.156825 -10.417401 -27.264991 -4.486939 -1.383484 8.996269 27.104976 5.628714 -13.705253 13.143459 0.380400 -3.961200 -10.967600 18.387588 20.224772 0.913843 2.270986 -6.731940 21.513268 2.364653 -9.067452 2.121157 -1.911800 8.679900 -24.798900 5.766275 -0.422745 -3.236908 -2.154586 -0.630060 -12.268111 11.260609 5.122064 7.040822 0.456800 2.873500 2.643700 -85.644206 2.459408 34.073967 24.902792 -25.048595 -7.033283 1.624435 0.877719 16.408036 -7.125000 0.000000 0.000000 76.745541 -13.326297 8.784075 -20.490992 23.449090 -5.778589 1.320693 0.178795 21.490057 7.125000 0.000000 0.000000 
9.280494 18.360330 -40.617066 -19.099306 -85.134611 22.453469 -10.328009 -27.763965 -4.823732 -1.369080 9.111081 27.183481 5.495097 -13.135614 13.045032 0.476900 -4.428800 -12.286300 18.494077 19.833989 0.922262 2.294415 -6.620638 21.342042 2.597080 -9.691832 1.686759 -1.867300 8.584100 -24.502800 5.149815 -0.244816 -3.376950 -2.358690 -0.509017 -12.272829 10.355515 6.370710 6.518057 0.012900 3.435400 2.462800 -84.943913 2.897358 32.338183 25.393973 -25.547270 -7.171171 1.513534 0.884197 14.878209 -7.125000 0.000000 0.000000 76.131496 -13.085807 9.725280 -20.653490 23.662632 -5.869359 1.298859 0.246884 19.920500 7.125000 0.000000 0.000000 
9.275531 18.356312 -40.689506 -17.281301 -84.548688 20.781829 -10.041612 -27.634640 -5.171168 -1.322567 9.200611 27.353465 5.517980 -13.103608 12.920334 0.603000 -4.970700 -13.825200 18.881335 19.507636 1.052196 2.346686 -6.519143 21.138467 2.704883 -9.980485 0.992458 -1.668400 8.138100 -23.134400 4.960906 0.052551 -3.189665 -2.617787 -0.371649 -11.950287 9.220344 7.434359 5.888612 -0.493900 3.890500 2.274700 -84.697553 3.099657 29.622689 25.716839 -25.873574 -7.237277 1.449019 0.885771 14.373131 -7.125000 0.000000 0.000000 75.283240 -12.793249 10.883352 -20.708853 23.730255 -5.915224 1.290879 0.294171 18.074474 7.125000 0.000000 0.000000 
